<svg viewBox="0 0 16 16" fill="current" xmlns="http://www.w3.org/2000/svg">
<path d="M1.78091 15.25H9.21753C9.78203 15.25 10.2262 14.7817 10.1137 14.2285C9.80323 12.7012 8.78893 10 5.49923 10C2.20954 10 1.19528 12.7012 0.884715 14.2285C0.772225 14.7817 1.21641 15.25 1.78091 15.25Z"  stroke-width="1.5" stroke-linecap="round" stroke-linejoin="round"/>
<path d="M11.75 10C13.8288 10 14.6802 12.1479 15.0239 13.696C15.2095 14.532 14.5333 15.25 13.6769 15.25H12.75"  stroke-width="1.5" stroke-linecap="round" stroke-linejoin="round"/>
<path d="M5.5 6.25C7.01878 6.25 8.25 5.01878 8.25 3.5C8.25 1.98122 7.01878 0.75 5.5 0.75C3.98122 0.75 2.75 1.98122 2.75 3.5C2.75 5.01878 3.98122 6.25 5.5 6.25Z"  stroke-width="1.5" stroke-linecap="round" stroke-linejoin="round"/>
<path d="M10.75 6.25C12.2688 6.25 13.25 5.01878 13.25 3.5C13.25 1.98122 12.2688 0.75 10.75 0.75"  stroke-width="1.5" stroke-linecap="round" stroke-linejoin="round"/>
</svg>