<svg width="22" height="16" viewBox="0 0 16 16" fill="none" xmlns="http://www.w3.org/2000/svg">
<path d="M3 12.2686C1.36209 10.6693 0.75 8.5914 0.75 8C0.75 7 2.5 1.75 8 1.75C9.7947 1.75 11.1901 2.30902 12.2558 3.09698M14.6247 6C15.0646 6.8986 15.25 7.6745 15.25 8C15.25 9 13.5 14.25 8 14.25C7.2686 14.25 6.6035 14.1572 6 13.9938L14.6247 6Z" stroke="#747488" stroke-width="1.5" stroke-linecap="round" stroke-linejoin="round"/>
<path d="M15.25 0.75L0.75 15.25" stroke="#747488" stroke-width="1.5" stroke-linecap="round" stroke-linejoin="round"/>
<path d="M6.409 9.59102C5.53033 8.71232 5.53033 7.28773 6.409 6.40903C7.2877 5.53032 8.7123 5.53032 9.591 6.40903" stroke="#747488" stroke-width="1.5" stroke-linecap="round" stroke-linejoin="round"/>
</svg>
