<svg width="100" height="20" viewBox="0 0 100 20" fill="none" xmlns="http://www.w3.org/2000/svg">
<path d="M0.5 8.64648C0.5 4.22821 4.08172 0.646484 8.5 0.646484H91.5C95.9183 0.646484 99.5 4.22821 99.5 8.64648V11.6465C99.5 16.0648 95.9183 19.6465 91.5 19.6465H8.5C4.08172 19.6465 0.5 16.0648 0.5 11.6465V8.64648Z" fill="#FFEFEF"/>
<path d="M10.362 14.7165C10.1473 14.7165 9.97467 14.6512 9.844 14.5205C9.71333 14.3898 9.648 14.2125 9.648 13.9885V5.43448C9.648 5.21982 9.71333 5.04715 9.844 4.91648C9.97467 4.77648 10.1473 4.70648 10.362 4.70648C10.586 4.70648 10.7633 4.77182 10.894 4.90248C11.0247 5.03315 11.09 5.21048 11.09 5.43448V13.9885C11.09 14.2125 11.0247 14.3898 10.894 14.5205C10.7727 14.6512 10.5953 14.7165 10.362 14.7165ZM16.8944 7.64648C18.5278 7.64648 19.3444 8.56582 19.3444 10.4045V14.0445C19.3444 14.2592 19.2791 14.4272 19.1484 14.5485C19.0271 14.6605 18.8544 14.7165 18.6304 14.7165C18.4158 14.7165 18.2431 14.6558 18.1124 14.5345C17.9911 14.4132 17.9304 14.2498 17.9304 14.0445V10.4745C17.9304 9.89582 17.8138 9.47115 17.5804 9.20048C17.3564 8.92982 17.0018 8.79448 16.5164 8.79448C15.9471 8.79448 15.4898 8.97182 15.1444 9.32648C14.7991 9.68115 14.6264 10.1572 14.6264 10.7545V14.0445C14.6264 14.2498 14.5611 14.4132 14.4304 14.5345C14.3091 14.6558 14.1411 14.7165 13.9264 14.7165C13.7118 14.7165 13.5391 14.6558 13.4084 14.5345C13.2778 14.4132 13.2124 14.2498 13.2124 14.0445V8.34648C13.2124 8.15048 13.2778 7.99182 13.4084 7.87048C13.5484 7.73982 13.7211 7.67448 13.9264 7.67448C14.1318 7.67448 14.2951 7.73515 14.4164 7.85648C14.5378 7.97782 14.5984 8.13648 14.5984 8.33248V8.90648C14.8224 8.49582 15.1351 8.18315 15.5364 7.96848C15.9378 7.75382 16.3904 7.64648 16.8944 7.64648ZM24.1488 7.64648C25.0542 7.64648 25.7262 7.87515 26.1648 8.33248C26.6128 8.78982 26.8368 9.48515 26.8368 10.4185V14.0445C26.8368 14.2592 26.7762 14.4272 26.6548 14.5485C26.5335 14.6605 26.3655 14.7165 26.1508 14.7165C25.9455 14.7165 25.7822 14.6558 25.6608 14.5345C25.5395 14.4132 25.4788 14.2498 25.4788 14.0445V13.5265C25.3015 13.9185 25.0355 14.2218 24.6808 14.4365C24.3355 14.6418 23.9295 14.7445 23.4628 14.7445C23.0148 14.7445 22.6042 14.6558 22.2308 14.4785C21.8668 14.2918 21.5775 14.0398 21.3628 13.7225C21.1482 13.4052 21.0408 13.0458 21.0408 12.6445C21.0315 12.1405 21.1575 11.7485 21.4188 11.4685C21.6802 11.1792 22.1048 10.9738 22.6928 10.8525C23.2808 10.7218 24.0975 10.6565 25.1428 10.6565H25.4648V10.2505C25.4648 9.72782 25.3575 9.34982 25.1428 9.11648C24.9282 8.88315 24.5828 8.76648 24.1068 8.76648C23.7802 8.76648 23.4722 8.80848 23.1828 8.89248C22.8935 8.97648 22.5762 9.09782 22.2308 9.25648C21.9788 9.39648 21.8015 9.46648 21.6988 9.46648C21.5588 9.46648 21.4422 9.41515 21.3488 9.31248C21.2648 9.20982 21.2228 9.07915 21.2228 8.92048C21.2228 8.78048 21.2602 8.65915 21.3348 8.55648C21.4188 8.44448 21.5495 8.33715 21.7268 8.23448C22.0535 8.05715 22.4362 7.91715 22.8748 7.81448C23.3135 7.70248 23.7382 7.64648 24.1488 7.64648ZM23.7148 13.6945C24.2282 13.6945 24.6482 13.5218 24.9748 13.1765C25.3015 12.8218 25.4648 12.3692 25.4648 11.8185V11.4545H25.2128C24.4848 11.4545 23.9248 11.4872 23.5328 11.5525C23.1408 11.6178 22.8608 11.7298 22.6928 11.8885C22.5248 12.0378 22.4408 12.2572 22.4408 12.5465C22.4408 12.8825 22.5622 13.1578 22.8048 13.3725C23.0475 13.5872 23.3508 13.6945 23.7148 13.6945ZM34.357 4.70648C34.5717 4.70648 34.7443 4.76715 34.875 4.88848C35.0057 5.00982 35.071 5.17315 35.071 5.37848V14.0305C35.071 14.2452 35.0057 14.4132 34.875 14.5345C34.7537 14.6558 34.5857 14.7165 34.371 14.7165C34.1563 14.7165 33.9837 14.6558 33.853 14.5345C33.7317 14.4132 33.671 14.2452 33.671 14.0305V13.4705C33.4657 13.8812 33.167 14.1985 32.775 14.4225C32.383 14.6372 31.9303 14.7445 31.417 14.7445C30.829 14.7445 30.3017 14.5952 29.835 14.2965C29.3777 13.9978 29.0183 13.5778 28.757 13.0365C28.505 12.4952 28.379 11.8745 28.379 11.1745C28.379 10.4652 28.505 9.84448 28.757 9.31248C29.0183 8.78048 29.3777 8.36982 29.835 8.08048C30.2923 7.79115 30.8197 7.64648 31.417 7.64648C31.9303 7.64648 32.3783 7.75848 32.761 7.98248C33.153 8.19715 33.4517 8.50515 33.657 8.90648V5.35048C33.657 5.15448 33.7177 5.00048 33.839 4.88848C33.9697 4.76715 34.1423 4.70648 34.357 4.70648ZM31.753 13.6245C32.3597 13.6245 32.831 13.4145 33.167 12.9945C33.503 12.5745 33.671 11.9772 33.671 11.2025C33.671 10.4278 33.503 9.83048 33.167 9.41048C32.8403 8.99048 32.369 8.78048 31.753 8.78048C31.137 8.78048 30.6563 8.99048 30.311 9.41048C29.975 9.82115 29.807 10.4092 29.807 11.1745C29.807 11.9398 29.9797 12.5418 30.325 12.9805C30.6703 13.4098 31.1463 13.6245 31.753 13.6245ZM37.7565 14.7165C37.5512 14.7165 37.3785 14.6605 37.2385 14.5485C37.1078 14.4365 37.0425 14.2685 37.0425 14.0445V8.36048C37.0425 8.13648 37.1078 7.96848 37.2385 7.85648C37.3785 7.73515 37.5512 7.67448 37.7565 7.67448C37.9618 7.67448 38.1298 7.73515 38.2605 7.85648C38.3912 7.96848 38.4565 8.13648 38.4565 8.36048V14.0445C38.4565 14.2685 38.3912 14.4365 38.2605 14.5485C38.1298 14.6605 37.9618 14.7165 37.7565 14.7165ZM37.7565 6.30248C37.4858 6.30248 37.2712 6.22782 37.1125 6.07848C36.9538 5.92915 36.8745 5.73315 36.8745 5.49048C36.8745 5.24782 36.9538 5.05648 37.1125 4.91648C37.2712 4.76715 37.4858 4.69248 37.7565 4.69248C38.0178 4.69248 38.2278 4.76715 38.3865 4.91648C38.5545 5.05648 38.6385 5.24782 38.6385 5.49048C38.6385 5.73315 38.5592 5.92915 38.4005 6.07848C38.2418 6.22782 38.0272 6.30248 37.7565 6.30248ZM48.2731 7.64648C49.8038 7.64648 50.5691 8.56582 50.5691 10.4045V14.0445C50.5691 14.2592 50.5038 14.4272 50.3731 14.5485C50.2425 14.6605 50.0698 14.7165 49.8551 14.7165C49.6498 14.7165 49.4818 14.6605 49.3511 14.5485C49.2205 14.4272 49.1551 14.2592 49.1551 14.0445V10.4185C49.1551 9.84915 49.0525 9.43848 48.8471 9.18648C48.6418 8.92515 48.3198 8.79448 47.8811 8.79448C47.3678 8.79448 46.9618 8.97182 46.6631 9.32648C46.3645 9.67182 46.2151 10.1478 46.2151 10.7545V14.0445C46.2151 14.2592 46.1498 14.4272 46.0191 14.5485C45.8885 14.6605 45.7158 14.7165 45.5011 14.7165C45.2958 14.7165 45.1278 14.6605 44.9971 14.5485C44.8665 14.4272 44.8011 14.2592 44.8011 14.0445V10.4185C44.8011 9.84915 44.6985 9.43848 44.4931 9.18648C44.2878 8.92515 43.9658 8.79448 43.5271 8.79448C43.0138 8.79448 42.6031 8.97182 42.2951 9.32648C41.9965 9.67182 41.8471 10.1478 41.8471 10.7545V14.0445C41.8471 14.2592 41.7818 14.4272 41.6511 14.5485C41.5205 14.6605 41.3525 14.7165 41.1471 14.7165C40.9418 14.7165 40.7691 14.6605 40.6291 14.5485C40.4985 14.4272 40.4331 14.2592 40.4331 14.0445V8.34648C40.4331 8.14115 40.5031 7.97782 40.6431 7.85648C40.7831 7.73515 40.9511 7.67448 41.1471 7.67448C41.3431 7.67448 41.5018 7.73515 41.6231 7.85648C41.7538 7.96848 41.8191 8.12715 41.8191 8.33248V8.85048C42.0245 8.45848 42.3091 8.15982 42.6731 7.95448C43.0371 7.74915 43.4571 7.64648 43.9331 7.64648C44.4558 7.64648 44.8851 7.75382 45.2211 7.96848C45.5665 8.18315 45.8231 8.51448 45.9911 8.96248C46.1965 8.56115 46.4998 8.24382 46.9011 8.01048C47.3025 7.76782 47.7598 7.64648 48.2731 7.64648ZM56.1734 7.64648C56.7614 7.64648 57.2841 7.79582 57.7414 8.09448C58.2081 8.39315 58.5674 8.81315 58.8194 9.35448C59.0807 9.89582 59.2114 10.5212 59.2114 11.2305C59.2114 11.9305 59.0854 12.5465 58.8334 13.0785C58.5814 13.6105 58.2221 14.0212 57.7554 14.3105C57.2981 14.5998 56.7707 14.7445 56.1734 14.7445C55.6601 14.7445 55.2074 14.6372 54.8154 14.4225C54.4234 14.1985 54.1247 13.8812 53.9194 13.4705V16.5925C53.9194 16.7885 53.8541 16.9425 53.7234 17.0545C53.6021 17.1758 53.4387 17.2365 53.2334 17.2365C53.0187 17.2365 52.8414 17.1758 52.7014 17.0545C52.5707 16.9332 52.5054 16.7698 52.5054 16.5645V8.36048C52.5054 8.15515 52.5707 7.99182 52.7014 7.87048C52.8321 7.73982 53.0047 7.67448 53.2194 7.67448C53.4247 7.67448 53.5927 7.73982 53.7234 7.87048C53.8541 7.99182 53.9194 8.15515 53.9194 8.36048V8.93448C54.1247 8.52382 54.4234 8.20648 54.8154 7.98248C55.2074 7.75848 55.6601 7.64648 56.1734 7.64648ZM55.8374 13.6245C56.4534 13.6245 56.9294 13.4192 57.2654 13.0085C57.6014 12.5885 57.7694 11.9958 57.7694 11.2305C57.7694 10.4558 57.5967 9.85382 57.2514 9.42448C56.9154 8.99515 56.4441 8.78048 55.8374 8.78048C55.2214 8.78048 54.7454 8.99048 54.4094 9.41048C54.0827 9.83048 53.9194 10.4278 53.9194 11.2025C53.9194 11.9772 54.0827 12.5745 54.4094 12.9945C54.7454 13.4145 55.2214 13.6245 55.8374 13.6245ZM61.4909 14.7165C61.2855 14.7165 61.1129 14.6605 60.9729 14.5485C60.8422 14.4365 60.7769 14.2685 60.7769 14.0445V5.39248C60.7769 5.16848 60.8422 5.00048 60.9729 4.88848C61.1129 4.76715 61.2855 4.70648 61.4909 4.70648C61.6962 4.70648 61.8642 4.76715 61.9949 4.88848C62.1255 5.00048 62.1909 5.16848 62.1909 5.39248V14.0445C62.1909 14.2685 62.1255 14.4365 61.9949 14.5485C61.8642 14.6605 61.6962 14.7165 61.4909 14.7165ZM69.5155 12.9245C69.6462 12.9245 69.7535 12.9758 69.8375 13.0785C69.9215 13.1812 69.9635 13.3118 69.9635 13.4705C69.9635 13.7412 69.7955 13.9698 69.4595 14.1565C69.1328 14.3432 68.7735 14.4878 68.3815 14.5905C67.9988 14.6932 67.6302 14.7445 67.2755 14.7445C66.1928 14.7445 65.3388 14.4318 64.7135 13.8065C64.0882 13.1718 63.7755 12.3085 63.7755 11.2165C63.7755 10.5165 63.9108 9.89582 64.1815 9.35448C64.4615 8.81315 64.8488 8.39315 65.3435 8.09448C65.8475 7.79582 66.4168 7.64648 67.0515 7.64648C67.9662 7.64648 68.6895 7.94048 69.2215 8.52848C69.7535 9.11648 70.0195 9.90982 70.0195 10.9085C70.0195 11.2818 69.8515 11.4685 69.5155 11.4685H65.1895C65.2828 12.9152 65.9782 13.6385 67.2755 13.6385C67.6208 13.6385 67.9195 13.5918 68.1715 13.4985C68.4235 13.4052 68.6895 13.2838 68.9695 13.1345C68.9975 13.1158 69.0722 13.0785 69.1935 13.0225C69.3242 12.9572 69.4315 12.9245 69.5155 12.9245ZM67.0795 8.68248C66.5382 8.68248 66.1042 8.85515 65.7775 9.20048C65.4508 9.54582 65.2548 10.0312 65.1895 10.6565H68.8015C68.7735 10.0218 68.6102 9.53648 68.3115 9.20048C68.0222 8.85515 67.6115 8.68248 67.0795 8.68248ZM75.2597 7.64648C76.893 7.64648 77.7097 8.56582 77.7097 10.4045V14.0445C77.7097 14.2592 77.6443 14.4272 77.5137 14.5485C77.3923 14.6605 77.2197 14.7165 76.9957 14.7165C76.781 14.7165 76.6083 14.6558 76.4777 14.5345C76.3563 14.4132 76.2957 14.2498 76.2957 14.0445V10.4745C76.2957 9.89582 76.179 9.47115 75.9457 9.20048C75.7217 8.92982 75.367 8.79448 74.8817 8.79448C74.3123 8.79448 73.855 8.97182 73.5097 9.32648C73.1643 9.68115 72.9917 10.1572 72.9917 10.7545V14.0445C72.9917 14.2498 72.9263 14.4132 72.7957 14.5345C72.6743 14.6558 72.5063 14.7165 72.2917 14.7165C72.077 14.7165 71.9043 14.6558 71.7737 14.5345C71.643 14.4132 71.5777 14.2498 71.5777 14.0445V8.34648C71.5777 8.15048 71.643 7.99182 71.7737 7.87048C71.9137 7.73982 72.0863 7.67448 72.2917 7.67448C72.497 7.67448 72.6603 7.73515 72.7817 7.85648C72.903 7.97782 72.9637 8.13648 72.9637 8.33248V8.90648C73.1877 8.49582 73.5003 8.18315 73.9017 7.96848C74.303 7.75382 74.7557 7.64648 75.2597 7.64648ZM82.9901 13.6385C83.1954 13.6572 83.3401 13.7132 83.4241 13.8065C83.5174 13.8905 83.5641 14.0118 83.5641 14.1705C83.5641 14.3572 83.4894 14.5018 83.3401 14.6045C83.2001 14.6978 82.9901 14.7352 82.7101 14.7165L82.3321 14.6885C81.5761 14.6325 81.0114 14.4038 80.6381 14.0025C80.2647 13.5918 80.0781 12.9898 80.0781 12.1965V8.90648H79.2381C78.8274 8.90648 78.6221 8.72448 78.6221 8.36048C78.6221 8.19248 78.6734 8.06182 78.7761 7.96848C78.8881 7.86582 79.0421 7.81448 79.2381 7.81448H80.0781V6.37248C80.0781 6.15782 80.1387 5.98982 80.2601 5.86848C80.3907 5.74715 80.5634 5.68648 80.7781 5.68648C80.9927 5.68648 81.1654 5.74715 81.2961 5.86848C81.4267 5.98982 81.4921 6.15782 81.4921 6.37248V7.81448H82.8781C83.0741 7.81448 83.2234 7.86582 83.3261 7.96848C83.4381 8.06182 83.4941 8.19248 83.4941 8.36048C83.4941 8.53782 83.4381 8.67315 83.3261 8.76648C83.2234 8.85982 83.0741 8.90648 82.8781 8.90648H81.4921V12.2945C81.4921 12.7332 81.5807 13.0552 81.7581 13.2605C81.9447 13.4658 82.2247 13.5825 82.5981 13.6105L82.9901 13.6385ZM89.9276 12.9245C90.0583 12.9245 90.1656 12.9758 90.2496 13.0785C90.3336 13.1812 90.3756 13.3118 90.3756 13.4705C90.3756 13.7412 90.2076 13.9698 89.8716 14.1565C89.5449 14.3432 89.1856 14.4878 88.7936 14.5905C88.4109 14.6932 88.0423 14.7445 87.6876 14.7445C86.6049 14.7445 85.7509 14.4318 85.1256 13.8065C84.5003 13.1718 84.1876 12.3085 84.1876 11.2165C84.1876 10.5165 84.3229 9.89582 84.5936 9.35448C84.8736 8.81315 85.2609 8.39315 85.7556 8.09448C86.2596 7.79582 86.8289 7.64648 87.4636 7.64648C88.3783 7.64648 89.1016 7.94048 89.6336 8.52848C90.1656 9.11648 90.4316 9.90982 90.4316 10.9085C90.4316 11.2818 90.2636 11.4685 89.9276 11.4685H85.6016C85.6949 12.9152 86.3903 13.6385 87.6876 13.6385C88.0329 13.6385 88.3316 13.5918 88.5836 13.4985C88.8356 13.4052 89.1016 13.2838 89.3816 13.1345C89.4096 13.1158 89.4843 13.0785 89.6056 13.0225C89.7363 12.9572 89.8436 12.9245 89.9276 12.9245ZM87.4916 8.68248C86.9503 8.68248 86.5163 8.85515 86.1896 9.20048C85.8629 9.54582 85.6669 10.0312 85.6016 10.6565H89.2136C89.1856 10.0218 89.0223 9.53648 88.7236 9.20048C88.4343 8.85515 88.0236 8.68248 87.4916 8.68248Z" fill="#971D1D"/>
</svg>
