<svg width="68" height="20" viewBox="0 0 68 20" fill="none" xmlns="http://www.w3.org/2000/svg">
<path d="M0.5 8.54883C0.5 4.13055 4.08172 0.548828 8.5 0.548828H59.5C63.9183 0.548828 67.5 4.13055 67.5 8.54883V11.5488C67.5 15.9671 63.9183 19.5488 59.5 19.5488H8.5C4.08172 19.5488 0.5 15.9671 0.5 11.5488V8.54883Z" fill="#FFEFEF"/>
<path d="M16.858 4.98683C16.9793 4.72549 17.18 4.59483 17.46 4.59483C17.6467 4.59483 17.8147 4.66016 17.964 4.79083C18.1133 4.91216 18.188 5.06149 18.188 5.23883C18.188 5.30416 18.1647 5.39283 18.118 5.50483L14.17 14.1568C14.1047 14.3062 14.002 14.4228 13.862 14.5068C13.722 14.5908 13.5727 14.6328 13.414 14.6328C13.2553 14.6328 13.1013 14.5908 12.952 14.5068C12.812 14.4228 12.7093 14.3062 12.644 14.1568L8.71 5.50483C8.66333 5.39283 8.64 5.30416 8.64 5.23883C8.64 5.05216 8.71467 4.89816 8.864 4.77683C9.02267 4.65549 9.19533 4.59483 9.382 4.59483C9.67133 4.59483 9.87667 4.72549 9.998 4.98683L13.428 12.6728L16.858 4.98683ZM23.8514 12.8268C23.9821 12.8268 24.0894 12.8782 24.1734 12.9808C24.2574 13.0835 24.2994 13.2142 24.2994 13.3728C24.2994 13.6435 24.1314 13.8722 23.7954 14.0588C23.4688 14.2455 23.1094 14.3902 22.7174 14.4928C22.3348 14.5955 21.9661 14.6468 21.6114 14.6468C20.5288 14.6468 19.6748 14.3342 19.0494 13.7088C18.4241 13.0742 18.1114 12.2108 18.1114 11.1188C18.1114 10.4188 18.2468 9.79816 18.5174 9.25683C18.7974 8.71549 19.1848 8.29549 19.6794 7.99683C20.1834 7.69816 20.7528 7.54883 21.3874 7.54883C22.3021 7.54883 23.0254 7.84283 23.5574 8.43083C24.0894 9.01883 24.3554 9.81216 24.3554 10.8108C24.3554 11.1842 24.1874 11.3708 23.8514 11.3708H19.5254C19.6188 12.8175 20.3141 13.5408 21.6114 13.5408C21.9568 13.5408 22.2554 13.4942 22.5074 13.4008C22.7594 13.3075 23.0254 13.1862 23.3054 13.0368C23.3334 13.0182 23.4081 12.9808 23.5294 12.9248C23.6601 12.8595 23.7674 12.8268 23.8514 12.8268ZM21.4154 8.58483C20.8741 8.58483 20.4401 8.75749 20.1134 9.10283C19.7868 9.44816 19.5908 9.93349 19.5254 10.5588H23.1374C23.1094 9.92416 22.9461 9.43883 22.6474 9.10283C22.3581 8.75749 21.9474 8.58483 21.4154 8.58483ZM29.5956 7.54883C31.2289 7.54883 32.0456 8.46816 32.0456 10.3068V13.9468C32.0456 14.1615 31.9803 14.3295 31.8496 14.4508C31.7283 14.5628 31.5556 14.6188 31.3316 14.6188C31.1169 14.6188 30.9443 14.5582 30.8136 14.4368C30.6923 14.3155 30.6316 14.1522 30.6316 13.9468V10.3768C30.6316 9.79816 30.5149 9.37349 30.2816 9.10283C30.0576 8.83216 29.7029 8.69683 29.2176 8.69683C28.6483 8.69683 28.1909 8.87416 27.8456 9.22883C27.5003 9.58349 27.3276 10.0595 27.3276 10.6568V13.9468C27.3276 14.1522 27.2623 14.3155 27.1316 14.4368C27.0103 14.5582 26.8423 14.6188 26.6276 14.6188C26.4129 14.6188 26.2403 14.5582 26.1096 14.4368C25.9789 14.3155 25.9136 14.1522 25.9136 13.9468V8.24883C25.9136 8.05283 25.9789 7.89416 26.1096 7.77283C26.2496 7.64216 26.4223 7.57683 26.6276 7.57683C26.8329 7.57683 26.9963 7.63749 27.1176 7.75883C27.2389 7.88016 27.2996 8.03883 27.2996 8.23483V8.80883C27.5236 8.39816 27.8363 8.08549 28.2376 7.87083C28.6389 7.65616 29.0916 7.54883 29.5956 7.54883ZM36.906 14.6468C36.2433 14.6468 35.66 14.5022 35.156 14.2128C34.6613 13.9235 34.274 13.5128 33.994 12.9808C33.7233 12.4488 33.588 11.8328 33.588 11.1328C33.588 10.4235 33.728 9.79816 34.008 9.25683C34.2973 8.71549 34.6987 8.29549 35.212 7.99683C35.7253 7.69816 36.3133 7.54883 36.976 7.54883C37.3307 7.54883 37.6853 7.60016 38.04 7.70283C38.404 7.80549 38.726 7.94549 39.006 8.12283C39.3047 8.32816 39.454 8.56616 39.454 8.83683C39.454 8.99549 39.412 9.13083 39.328 9.24283C39.244 9.34549 39.1367 9.39683 39.006 9.39683C38.922 9.39683 38.838 9.37816 38.754 9.34083C38.67 9.29416 38.5627 9.22883 38.432 9.14483C38.1987 8.99549 37.9793 8.88349 37.774 8.80883C37.578 8.72483 37.34 8.68283 37.06 8.68283C36.4253 8.68283 35.9307 8.89749 35.576 9.32683C35.2307 9.75616 35.058 10.3535 35.058 11.1188C35.058 11.8842 35.2307 12.4768 35.576 12.8968C35.9213 13.3075 36.4113 13.5128 37.046 13.5128C37.326 13.5128 37.5733 13.4708 37.788 13.3868C38.0027 13.3028 38.222 13.1908 38.446 13.0508C38.5487 12.9855 38.6513 12.9295 38.754 12.8828C38.8567 12.8362 38.95 12.8128 39.034 12.8128C39.1647 12.8128 39.272 12.8688 39.356 12.9808C39.44 13.0835 39.482 13.2142 39.482 13.3728C39.482 13.5035 39.4447 13.6248 39.37 13.7368C39.3047 13.8395 39.188 13.9468 39.02 14.0588C38.74 14.2455 38.4133 14.3902 38.04 14.4928C37.6667 14.5955 37.2887 14.6468 36.906 14.6468ZM41.4616 14.6188C41.2562 14.6188 41.0836 14.5628 40.9436 14.4508C40.8129 14.3388 40.7476 14.1708 40.7476 13.9468V8.26283C40.7476 8.03883 40.8129 7.87083 40.9436 7.75883C41.0836 7.63749 41.2562 7.57683 41.4616 7.57683C41.6669 7.57683 41.8349 7.63749 41.9656 7.75883C42.0962 7.87083 42.1616 8.03883 42.1616 8.26283V13.9468C42.1616 14.1708 42.0962 14.3388 41.9656 14.4508C41.8349 14.5628 41.6669 14.6188 41.4616 14.6188ZM41.4616 6.20483C41.1909 6.20483 40.9762 6.13016 40.8176 5.98083C40.6589 5.83149 40.5796 5.63549 40.5796 5.39283C40.5796 5.15016 40.6589 4.95883 40.8176 4.81883C40.9762 4.66949 41.1909 4.59483 41.4616 4.59483C41.7229 4.59483 41.9329 4.66949 42.0916 4.81883C42.2596 4.95883 42.3436 5.15016 42.3436 5.39283C42.3436 5.63549 42.2642 5.83149 42.1056 5.98083C41.9469 6.13016 41.7322 6.20483 41.4616 6.20483ZM49.7242 4.60883C49.9389 4.60883 50.1115 4.66949 50.2422 4.79083C50.3729 4.91216 50.4382 5.07549 50.4382 5.28083V13.9328C50.4382 14.1475 50.3729 14.3155 50.2422 14.4368C50.1209 14.5582 49.9529 14.6188 49.7382 14.6188C49.5235 14.6188 49.3509 14.5582 49.2202 14.4368C49.0989 14.3155 49.0382 14.1475 49.0382 13.9328V13.3728C48.8329 13.7835 48.5342 14.1008 48.1422 14.3248C47.7502 14.5395 47.2975 14.6468 46.7842 14.6468C46.1962 14.6468 45.6689 14.4975 45.2022 14.1988C44.7449 13.9002 44.3855 13.4802 44.1242 12.9388C43.8722 12.3975 43.7462 11.7768 43.7462 11.0768C43.7462 10.3675 43.8722 9.74683 44.1242 9.21483C44.3855 8.68283 44.7449 8.27216 45.2022 7.98283C45.6595 7.69349 46.1869 7.54883 46.7842 7.54883C47.2975 7.54883 47.7455 7.66083 48.1282 7.88483C48.5202 8.09949 48.8189 8.40749 49.0242 8.80883V5.25283C49.0242 5.05683 49.0849 4.90283 49.2062 4.79083C49.3369 4.66949 49.5095 4.60883 49.7242 4.60883ZM47.1202 13.5268C47.7269 13.5268 48.1982 13.3168 48.5342 12.8968C48.8702 12.4768 49.0382 11.8795 49.0382 11.1048C49.0382 10.3302 48.8702 9.73283 48.5342 9.31283C48.2075 8.89283 47.7362 8.68283 47.1202 8.68283C46.5042 8.68283 46.0235 8.89283 45.6782 9.31283C45.3422 9.72349 45.1742 10.3115 45.1742 11.0768C45.1742 11.8422 45.3469 12.4442 45.6922 12.8828C46.0375 13.3122 46.5135 13.5268 47.1202 13.5268ZM55.2797 7.54883C56.185 7.54883 56.857 7.77749 57.2957 8.23483C57.7437 8.69216 57.9677 9.38749 57.9677 10.3208V13.9468C57.9677 14.1615 57.907 14.3295 57.7857 14.4508C57.6644 14.5628 57.4964 14.6188 57.2817 14.6188C57.0764 14.6188 56.913 14.5582 56.7917 14.4368C56.6704 14.3155 56.6097 14.1522 56.6097 13.9468V13.4288C56.4324 13.8208 56.1664 14.1242 55.8117 14.3388C55.4664 14.5442 55.0604 14.6468 54.5937 14.6468C54.1457 14.6468 53.735 14.5582 53.3617 14.3808C52.9977 14.1942 52.7084 13.9422 52.4937 13.6248C52.279 13.3075 52.1717 12.9482 52.1717 12.5468C52.1624 12.0428 52.2884 11.6508 52.5497 11.3708C52.811 11.0815 53.2357 10.8762 53.8237 10.7548C54.4117 10.6242 55.2284 10.5588 56.2737 10.5588H56.5957V10.1528C56.5957 9.63016 56.4884 9.25216 56.2737 9.01883C56.059 8.78549 55.7137 8.66883 55.2377 8.66883C54.911 8.66883 54.603 8.71083 54.3137 8.79483C54.0244 8.87883 53.707 9.00016 53.3617 9.15883C53.1097 9.29883 52.9324 9.36883 52.8297 9.36883C52.6897 9.36883 52.573 9.31749 52.4797 9.21483C52.3957 9.11216 52.3537 8.98149 52.3537 8.82283C52.3537 8.68283 52.391 8.56149 52.4657 8.45883C52.5497 8.34683 52.6804 8.23949 52.8577 8.13683C53.1844 7.95949 53.567 7.81949 54.0057 7.71683C54.4444 7.60483 54.869 7.54883 55.2797 7.54883ZM54.8457 13.5968C55.359 13.5968 55.779 13.4242 56.1057 13.0788C56.4324 12.7242 56.5957 12.2715 56.5957 11.7208V11.3568H56.3437C55.6157 11.3568 55.0557 11.3895 54.6637 11.4548C54.2717 11.5202 53.9917 11.6322 53.8237 11.7908C53.6557 11.9402 53.5717 12.1595 53.5717 12.4488C53.5717 12.7848 53.693 13.0602 53.9357 13.2748C54.1784 13.4895 54.4817 13.5968 54.8457 13.5968Z" fill="#971D1D"/>
</svg>
